<svg width="26" height="26" viewBox="0 0 26 26" fill="none" xmlns="http://www.w3.org/2000/svg">
<path d="M20.0018 25.2529C20.6589 25.2557 21.3135 25.1702 21.9478 24.9987L21.95 24.9981C22.725 24.7809 23.3856 24.272 23.7935 23.5783C23.7937 23.5779 23.794 23.5775 23.7942 23.5771L25.0145 21.5489C25.0145 21.5489 25.0145 21.5489 25.0145 21.5489C25.4726 20.7878 25.2507 19.8011 24.5111 19.3093L19.6527 16.0694L19.6519 16.0688C18.9267 15.5891 17.9545 15.7469 17.4183 16.4316L17.4177 16.4323L16.0025 18.2519L16.0025 18.2519L16.0006 18.2544C15.8939 18.395 15.7 18.4359 15.5456 18.3501L15.5449 18.3497L15.2757 18.2013L15.2746 18.2007L15.2676 18.1969C14.3949 17.7212 13.3042 17.1267 11.0916 14.9133C8.87964 12.7006 8.28355 11.609 7.80788 10.7379L7.80361 10.7301L7.8034 10.7297L7.65578 10.4605L7.6558 10.4605L7.6544 10.458C7.5674 10.3035 7.60746 10.1085 7.74836 10.0009L7.74837 10.0009L7.75008 9.99954L9.56855 8.58469L9.56922 8.58417C10.2536 8.04797 10.4117 7.07613 9.93246 6.35068L9.93185 6.34977L6.69189 1.49142C6.69187 1.4914 6.69186 1.49138 6.69184 1.49135C6.2003 0.752059 5.21424 0.530136 4.45334 0.987487C4.45332 0.987501 4.45329 0.987514 4.45327 0.987528L2.42261 2.20735C1.72909 2.61543 1.22029 3.27598 1.00282 4.05075L1.00282 4.05075L1.00243 4.05215C0.237122 6.84065 0.853856 11.5298 7.66265 18.3394L7.66267 18.3394C13.0776 23.7539 17.1507 25.2527 20.0018 25.2529ZM20.0018 25.2529C20.0017 25.2529 20.0015 25.2529 20.0014 25.2529L20.0025 25.0029V25.2529C20.0022 25.2529 20.002 25.2529 20.0018 25.2529ZM23.8969 20.8805L23.8966 20.8809L22.6778 22.9127L22.6778 22.9126L22.6763 22.9151C22.4398 23.32 22.0559 23.6177 21.6049 23.7461C19.2698 24.3868 15.0595 23.8971 8.58221 17.4198C2.10507 10.9427 1.61534 6.73277 2.25595 4.39724C2.38454 3.94563 2.68272 3.56111 3.08815 3.32413L3.08816 3.32414L3.0906 3.32267L5.12231 2.10382L5.12259 2.10365C5.2885 2.00383 5.50357 2.05221 5.61074 2.21343L5.61086 2.21361L7.37096 4.85613L7.37103 4.85623L8.8478 7.07114C8.84788 7.07127 8.84797 7.0714 8.84805 7.07153C8.95273 7.23025 8.91828 7.44278 8.76877 7.56033C8.76866 7.56042 8.76855 7.5605 8.76843 7.56059L6.95112 8.97421C6.29974 9.47296 6.11365 10.3745 6.51447 11.0904C6.51464 11.0907 6.51481 11.091 6.51498 11.0913L6.65797 11.3511C6.65805 11.3513 6.65812 11.3514 6.6582 11.3516C7.17931 12.3073 7.82887 13.4937 10.1681 15.8325L10.3448 15.6557L10.1681 15.8325C12.5071 18.1711 13.6931 18.8208 14.6484 19.3418C14.6486 19.3419 14.6488 19.342 14.6489 19.3421L14.9092 19.4855C14.9095 19.4857 14.9097 19.4858 14.91 19.486C15.6258 19.8868 16.5275 19.7008 17.0263 19.0494C17.0265 19.0491 17.0267 19.0488 17.0269 19.0485L18.4398 17.2321C18.4399 17.232 18.44 17.2319 18.4401 17.2318C18.5577 17.0824 18.77 17.0479 18.9289 17.1524C18.9291 17.1525 18.9293 17.1527 18.9295 17.1528L23.7868 20.3923L23.7872 20.3926C23.9484 20.4996 23.9968 20.7147 23.8969 20.8805Z" fill="white" stroke="white" stroke-width="0.5"/>
<path d="M22.4493 11.8011V11.8008C22.4445 7.46731 18.9328 3.95549 14.5993 3.95074H14.599C14.24 3.95074 13.949 4.24174 13.949 4.60075C13.949 4.95966 14.2398 5.2506 14.5987 5.25075C18.2148 5.25477 21.1453 8.18525 21.1493 11.8014C21.1495 12.1603 21.4404 12.4511 21.7993 12.4511C22.1583 12.4511 22.4493 12.1601 22.4493 11.8011Z" fill="white" stroke="white" stroke-width="0.5"/>
<path d="M20.0492 11.8011V11.8008C20.0457 8.79228 17.6077 6.35428 14.5993 6.35085H14.599C14.24 6.35085 13.949 6.64185 13.949 7.00085C13.949 7.35976 14.2398 7.65069 14.5987 7.65085C16.8898 7.65355 18.7465 9.51023 18.7492 11.8014C18.7494 12.1603 19.0404 12.4511 19.3992 12.4511C19.7582 12.4511 20.0492 12.1601 20.0492 11.8011Z" fill="white" stroke="white" stroke-width="0.5"/>
<path d="M17.6485 11.8002L17.6485 11.8005C17.6485 12.1595 17.3574 12.4505 16.9985 12.4505C16.6397 12.4505 16.3487 12.1596 16.3486 11.8007M17.6485 11.8002L16.5986 11.8005M17.6485 11.8002C17.6465 10.117 16.2825 8.75285 14.5992 8.75096H14.5989C14.2399 8.75096 13.949 9.04193 13.949 9.40089C13.949 9.75975 14.2398 10.0507 14.5986 10.0508M17.6485 11.8002L14.5989 9.80081M16.3486 11.8007C16.3486 11.8006 16.3486 11.8006 16.3486 11.8005H16.5986M16.3486 11.8007C16.3486 11.8007 16.3486 11.8008 16.3486 11.8008L16.5986 11.8005M16.3486 11.8007C16.3473 10.8347 15.5645 10.052 14.5986 10.0508M16.5986 11.8005C16.5973 10.6966 15.7027 9.80212 14.5989 9.80081M14.5986 10.0508C14.5987 10.0508 14.5988 10.0508 14.5989 10.0508V9.80081M14.5986 10.0508L14.5989 9.80081" fill="white" stroke="white" stroke-width="0.5"/>
</svg>
