<svg width="105" height="88" viewBox="0 0 105 88" fill="none" xmlns="http://www.w3.org/2000/svg">
<path d="M68.6332 14.9495C67.405 14.9495 66.4058 15.9433 66.4058 17.1649C66.4058 18.3866 67.405 19.3804 68.6332 19.3804C69.8614 19.3804 70.8606 18.3866 70.8606 17.1649C70.8606 15.9433 69.8614 14.9495 68.6332 14.9495ZM68.6332 19.0077C67.6131 19.0077 66.8013 18.1795 66.8013 17.1856C66.8013 16.1711 67.634 15.3636 68.6332 15.3636C69.6532 15.3636 70.465 16.1918 70.465 17.1856C70.465 18.1795 69.6324 19.0077 68.6332 19.0077Z" fill="#ABE1FA"/>
<path d="M69.5693 17.0821C69.6734 16.9579 69.7358 16.8129 69.7358 16.6266C69.7358 16.2332 69.4236 15.9226 69.0281 15.9226H67.6958V18.3865H69.1322C69.5485 18.3865 69.8607 18.0553 69.8607 17.6619C69.8607 17.4134 69.7358 17.2063 69.5693 17.0821ZM68.0705 16.316H69.0073C69.1738 16.316 69.3195 16.4609 69.3195 16.6266C69.3195 16.7922 69.1738 16.9372 69.0073 16.9372H68.0705V16.316ZM69.1322 18.0139H68.0913V17.3306H69.1322C69.3195 17.3306 69.486 17.4755 69.486 17.6826C69.4652 17.8482 69.3195 18.0139 69.1322 18.0139Z" fill="#ABE1FA"/>
<path d="M78.3548 41.0381L52.4379 0L26.521 41.0381L27.0414 41.9905C28.9982 46.0281 31.975 49.196 35.8886 51.4529C39.7813 53.6891 44.5692 54.9521 50.1272 55.2213L52.3963 59.8179L54.6861 55.2213C60.1401 54.9314 64.928 53.5442 68.9664 51.1009C70.9232 49.9 72.7343 48.4506 74.2955 46.7942C75.6694 45.3241 76.8976 43.6677 77.9385 41.8663H77.9177L78.3548 41.0381ZM53.9992 7.93017L66.8848 28.4285H53.9992V7.93017ZM62.9712 31.4929L58.9327 39.6094H45.8598L41.863 31.4929H62.9712ZM50.8558 7.95087V28.4078H37.991L50.8558 7.95087ZM37.3874 29.3603L42.425 39.6094H30.9342L37.3874 29.3603ZM37.4498 48.7198C34.7228 47.1669 32.537 45.0756 30.9133 42.4875H43.8614L48.5243 51.9498C44.2153 51.5564 40.4891 50.4798 37.4498 48.7198ZM52.4171 52.8609L47.2962 42.4875H57.5172L52.4171 52.8609ZM56.289 51.9291L60.9728 42.4875H73.7543C70.6318 46.7321 65.3027 50.9767 56.289 51.9291ZM62.3883 39.6094L67.4884 29.3395L73.9417 39.6094H62.3883Z" fill="white"/>
<path d="M102.481 74.6223V78.4735H95.0288V74.6223H92.5308V85.2028H95.0288V80.6476H102.481V85.2028H105V74.6223H102.481Z" fill="white"/>
<path d="M80.0403 77.3347C80.8314 76.6721 81.8722 76.3409 83.142 76.3409C84.8907 76.3409 86.3895 76.9827 87.6385 78.2665L89.9283 77.4382C88.2838 75.347 86.098 74.291 83.3502 74.291C81.2477 74.291 79.4991 74.8708 78.1252 76.0303C76.9386 77.0448 76.335 78.3286 76.335 79.8815C76.335 80.7718 76.5431 81.6 76.9386 82.3454C77.355 83.1115 77.8962 83.6913 78.5832 84.1468C80.0195 85.0578 81.6432 85.5133 83.4335 85.5133C84.7866 85.5133 85.9731 85.2856 86.9723 84.8301C87.9924 84.3746 88.9083 83.6499 89.7826 82.656L87.6593 81.4758C86.4727 82.8009 85.0364 83.4635 83.3294 83.4635C81.9763 83.4635 80.873 83.1322 80.0612 82.4696C79.2493 81.8071 78.833 80.9374 78.833 79.8815C78.833 78.8669 79.2493 77.9973 80.0403 77.3347Z" fill="white"/>
<path d="M65.3855 80.8546H71.4016V78.8048H65.3855V76.6514H74.0661V74.6016H62.8667V85.2234H74.4617V83.1736H65.3855V80.8546Z" fill="white"/>
<path d="M47.5039 76.6514H52.4375V85.2234H54.9355V76.6514H59.8482V74.6016H47.5039V76.6514Z" fill="white"/>
<path d="M33.0152 74.6016L27.5195 85.2234H30.0592L31.2457 82.9458H37.8863L39.0728 85.2234H41.6125L36.1377 74.6016H33.0152ZM32.2866 80.896L34.5348 76.5272L36.8038 80.896H32.2866Z" fill="white"/>
<path d="M25.1881 74.6016L20.7333 82.3868L16.2785 74.6016H13.4683L20.7333 87.1697L27.9984 74.6016H25.1881Z" fill="white"/>
<path d="M5.49563 74.6016L0 85.2234H2.53965L3.7262 82.9458H10.3459L11.5325 85.2234H14.0721L8.59733 74.6016H5.49563ZM4.74623 80.896L6.99444 76.5272L9.26347 80.896H4.74623Z" fill="white"/>
</svg>
