<svg width="143" height="167" viewBox="0 0 143 167" fill="none" xmlns="http://www.w3.org/2000/svg">
<path d="M143 114.57L71.5 0L0 114.57L1.43574 117.229C6.83413 128.502 15.0466 137.346 25.8434 143.647C36.5827 149.89 49.7916 153.416 65.1253 154.167L71.3851 167L77.7024 154.167C92.749 153.358 105.958 149.485 117.099 142.664C122.498 139.311 127.494 135.265 131.801 130.64C135.592 126.536 138.98 121.912 141.851 116.883H141.794L143 114.57ZM75.8072 22.1395L111.356 79.3669H75.8072V22.1395ZM100.559 87.9221L89.4181 110.582H53.3522L42.3257 87.9221H100.559ZM67.1353 22.1973V79.3091H31.6438L67.1353 22.1973ZM29.9783 81.9682L43.8763 110.582H12.1751L29.9783 81.9682ZM30.1506 136.016C22.6273 131.681 16.5972 125.843 12.1177 118.617H47.839L60.7032 145.034C48.8153 143.936 38.5353 140.93 30.1506 136.016ZM71.4426 147.577L57.3149 118.617H85.5128L71.4426 147.577ZM82.1245 144.976L95.0462 118.617H130.308C121.694 130.467 106.992 142.317 82.1245 144.976ZM98.9514 110.582L113.022 81.9104L130.825 110.582H98.9514Z" fill="white"/>
</svg>
