<svg width="44" height="48" viewBox="0 0 44 48" fill="none" xmlns="http://www.w3.org/2000/svg">
<path d="M21.6625 33.9098C28.8619 33.9098 34.6982 28.1902 34.6982 21.1348C34.6982 14.0794 28.8619 8.35986 21.6625 8.35986C14.4631 8.35986 8.62683 14.0794 8.62683 21.1348C8.62683 28.1902 14.4631 33.9098 21.6625 33.9098Z" fill="#101010"/>
<path d="M36.9797 6.21774C32.8883 2.20819 27.4484 0 21.6622 0C15.876 0 10.4361 2.20819 6.34473 6.21774C2.25325 10.2275 0 15.5585 0 21.229C0 31.2328 7.13645 39.8694 17.0506 41.9741L21.6622 48L26.274 41.974C36.188 39.8693 43.3244 31.2328 43.3244 21.229C43.3244 15.5585 41.0712 10.2275 36.9797 6.21774ZM21.6622 5.54207C30.4357 5.54207 37.5734 12.5371 37.5734 21.135C37.5734 29.7329 30.4357 36.728 21.6622 36.728C12.8887 36.728 5.75103 29.7329 5.75103 21.135C5.75103 12.5371 12.8887 5.54207 21.6622 5.54207Z" fill="#101010"/>
</svg>
